# xmcd CD database file
#
# Track frame offsets:
#	150
#	16426
#	30171
#	40792
#	50847
#	58812
#	68346
#	78705
#	90791
#	106770
#	120024
#	141102
#	154791
#	163187
#	173862
#	179479
#
# Disc length: 2469 seconds
#
# Revision: 0
# Processed by: cddbd v1.5.2PL0 Copyright (c) Steve Scherf et al.
# Submitted via: CDex 2.01
#
DISCID=c009a310
DTITLE=John Lactin and the Gravel Brothers - Who's Song Are These
DYEAR=1975
DGENRE=Country
TTITLE0=Sunflower Seeds
TTITLE1=Walter Row The Boat A Shore
TTITLE2=West To Aggasiz
TTITLE3=Carson Road
TTITLE4=Green Green Grass Of Home
TTITLE5=Heartbreak Motel
TTITLE6=Please Help Me I'm Crawling
TTITLE7=Poor Little Fool
TTITLE8=Satisfied Mind
TTITLE9=The Gambler
TTITLE10=12 Days Of Christmas
TTITLE11=Ah Ha Da Da
TTITLE12=Funny Farm
TTITLE13=Long Tall Mountie
TTITLE14=Anything
TTITLE15=Green Hills Of Gilpen
EXTD=YEAR: 1975
EXTT0=
EXTT1=
EXTT2=
EXTT3=
EXTT4=
EXTT5=
EXTT6=
EXTT7=
EXTT8=
EXTT9=
EXTT10=
EXTT11=
EXTT12=
EXTT13=
EXTT14=
EXTT15=
PLAYORDER=
